<svg xmlns="http://www.w3.org/2000/svg" viewBox="0 0 900 1200" width="900" height="1200" role="img" aria-label="Midnight Plum weave at 4× magnification">
<defs>
<linearGradient id="yarn" x1="0" y1="0" x2="1" y2="0">
  <stop offset="0" stop-color="#221929"/><stop offset=".3" stop-color="#2A1F33"/>
  <stop offset=".52" stop-color="#4e4555"/><stop offset="1" stop-color="#221929"/>
</linearGradient>
<linearGradient id="yarnH" x1="0" y1="0" x2="0" y2="1">
  <stop offset="0" stop-color="#221929"/><stop offset=".3" stop-color="#2A1F33"/>
  <stop offset=".52" stop-color="#4e4555"/><stop offset="1" stop-color="#221929"/>
</linearGradient>
<pattern id="warp" width="34" height="34" patternUnits="userSpaceOnUse">
  <rect x="4.08" width="25.84" height="34" rx="10.2" fill="url(#yarn)"/>
</pattern>
<pattern id="weft" width="34" height="34" patternUnits="userSpaceOnUse">
  <rect y="4.08" width="34" height="25.84" rx="10.2" fill="url(#yarnH)"/>
</pattern>
<pattern id="check" width="68" height="68" patternUnits="userSpaceOnUse">
  <rect width="34" height="34" fill="#fff"/>
  <rect x="34" y="34" width="34" height="34" fill="#fff"/>
</pattern>
<mask id="over"><rect width="900" height="1200" fill="url(#check)"/></mask>
<radialGradient id="focus" cx=".46" cy=".44" r=".58">
  <stop offset=".26" stop-color="#000" stop-opacity="0"/>
  <stop offset="1" stop-color="#000" stop-opacity=".62"/>
</radialGradient>
</defs>
<rect width="900" height="1200" fill="#1b1420"/>
<rect width="900" height="1200" fill="url(#warp)"/>
<g mask="url(#over)"><rect width="900" height="1200" fill="url(#weft)"/></g>
<path d="M244.7 758.9q207.1 -31.2 626.3 6.1" stroke="#9f99a0" stroke-width="1.1" fill="none" opacity="0.2"/><path d="M192 353.8q228.5 -50.4 653.5 -17.9" stroke="#9f99a0" stroke-width="1.7" fill="none" opacity="0.4"/><path d="M108.8 858.5q323.4 46.9 728.3 -10.9" stroke="#9f99a0" stroke-width="1" fill="none" opacity="0.3"/><path d="M205.7 1040.6q160.6 35.3 635.5 7.6" stroke="#9f99a0" stroke-width="0.9" fill="none" opacity="0.4"/><path d="M-25.8 1073.3q288.1 51.2 467.4 13.5" stroke="#9f99a0" stroke-width="1.8" fill="none" opacity="0.4"/><path d="M245.1 569.7q295.7 -45.9 598.5 24.4" stroke="#9f99a0" stroke-width="0.9" fill="none" opacity="0.3"/><path d="M40.2 679.5q227.2 -0.8 580.9 28.8" stroke="#9f99a0" stroke-width="1.4" fill="none" opacity="0.3"/>
<rect width="900" height="1200" fill="url(#focus)"/>
</svg>