<svg xmlns="http://www.w3.org/2000/svg" viewBox="0 0 900 1200" width="900" height="1200" role="img" aria-label="Blush Pearl fabric on the fall">
<defs>
<linearGradient id="f0" x1="0" y1="0" x2="1" y2="0">
      <stop offset="0" stop-color="#887575"/><stop offset=".46" stop-color="#E7C8C4"/><stop offset="1" stop-color="#ecd3cf"/>
    </linearGradient><linearGradient id="f1" x1="1" y1="0" x2="0" y2="0">
      <stop offset="0" stop-color="#9d8887"/><stop offset=".46" stop-color="#E7C8C4"/><stop offset="1" stop-color="#eed8d5"/>
    </linearGradient><linearGradient id="f2" x1="0" y1="0" x2="1" y2="0">
      <stop offset="0" stop-color="#a48e8d"/><stop offset=".46" stop-color="#E7C8C4"/><stop offset="1" stop-color="#edd5d1"/>
    </linearGradient><linearGradient id="f3" x1="1" y1="0" x2="0" y2="0">
      <stop offset="0" stop-color="#776667"/><stop offset=".46" stop-color="#E7C8C4"/><stop offset="1" stop-color="#eed7d3"/>
    </linearGradient><linearGradient id="f4" x1="0" y1="0" x2="1" y2="0">
      <stop offset="0" stop-color="#816f6f"/><stop offset=".46" stop-color="#E7C8C4"/><stop offset="1" stop-color="#ecd4d0"/>
    </linearGradient><linearGradient id="f5" x1="1" y1="0" x2="0" y2="0">
      <stop offset="0" stop-color="#8e7a7a"/><stop offset=".46" stop-color="#E7C8C4"/><stop offset="1" stop-color="#eed9d5"/>
    </linearGradient><linearGradient id="f6" x1="0" y1="0" x2="1" y2="0">
      <stop offset="0" stop-color="#988382"/><stop offset=".46" stop-color="#E7C8C4"/><stop offset="1" stop-color="#eed8d5"/>
    </linearGradient><linearGradient id="f7" x1="1" y1="0" x2="0" y2="0">
      <stop offset="0" stop-color="#847272"/><stop offset=".46" stop-color="#E7C8C4"/><stop offset="1" stop-color="#eed8d4"/>
    </linearGradient><linearGradient id="f8" x1="0" y1="0" x2="1" y2="0">
      <stop offset="0" stop-color="#8e7a7a"/><stop offset=".46" stop-color="#E7C8C4"/><stop offset="1" stop-color="#ebd2ce"/>
    </linearGradient>
<pattern id="wv" width="8" height="8" patternUnits="userSpaceOnUse">
  <rect width="8" height="8" fill="none"/>
  <path d="M0 0V8" stroke="#000" stroke-width="1.1" opacity=".5"/>
  <path d="M0 0H8" stroke="#000" stroke-width="1.1" opacity=".28"/>
</pattern>
<linearGradient id="depth" x1="0" y1="0" x2="0" y2="1">
  <stop offset="0" stop-color="#493e40" stop-opacity=".85"/>
  <stop offset=".28" stop-color="#bba29f" stop-opacity="0"/>
  <stop offset=".76" stop-color="#a58e8d" stop-opacity="0"/>
  <stop offset="1" stop-color="#4d4244" stop-opacity=".7"/>
</linearGradient>
<linearGradient id="sheen" x1="0" y1="0" x2="1" y2=".6">
  <stop offset="0" stop-color="#fff" stop-opacity="0"/>
  <stop offset=".42" stop-color="#fff" stop-opacity=".13"/>
  <stop offset=".58" stop-color="#fff" stop-opacity=".05"/>
  <stop offset="1" stop-color="#fff" stop-opacity="0"/>
</linearGradient>
<radialGradient id="vig" cx=".5" cy=".38" r=".78">
  <stop offset=".5" stop-color="#000" stop-opacity="0"/>
  <stop offset="1" stop-color="#000" stop-opacity=".42"/>
</radialGradient>
</defs>
<rect width="900" height="1200" fill="#3b3235"/>
<path d="M-80 -40C-20.9 395.2 -171.3 881.6 -17.8 1240L84.3 1240C6.8 881.6 -25.3 395.2 39.7 -40Z" fill="url(#f0)"/><path d="M39.7 -40C-25.3 395.2 6.8 881.6 84.3 1240L157.4 1240C167.8 881.6 152.8 395.2 174.8 -40Z" fill="url(#f1)"/><path d="M174.8 -40C152.8 395.2 167.8 881.6 157.4 1240L222.4 1240C324.7 881.6 277.2 395.2 287.7 -40Z" fill="url(#f2)"/><path d="M287.7 -40C277.2 395.2 324.7 881.6 222.4 1240L411.9 1240C483.5 881.6 397.5 395.2 422.9 -40Z" fill="url(#f3)"/><path d="M422.9 -40C397.5 395.2 483.5 881.6 411.9 1240L558 1240C548.5 881.6 478.2 395.2 519.9 -40Z" fill="url(#f4)"/><path d="M519.9 -40C478.2 395.2 548.5 881.6 558 1240L665.8 1240C539.6 881.6 664.2 395.2 604.9 -40Z" fill="url(#f5)"/><path d="M604.9 -40C664.2 395.2 539.6 881.6 665.8 1240L843.1 1240C852.9 881.6 697.4 395.2 748.7 -40Z" fill="url(#f6)"/><path d="M748.7 -40C697.4 395.2 852.9 881.6 843.1 1240L801.9 1240C732.3 881.6 796.2 395.2 829 -40Z" fill="url(#f7)"/><path d="M829 -40C796.2 395.2 732.3 881.6 801.9 1240L915.3 1240C891.6 881.6 960.3 395.2 980 -40Z" fill="url(#f8)"/>
<rect width="900" height="1200" fill="url(#wv)" opacity=".1"/>
<rect width="900" height="1200" fill="url(#sheen)"/>
<rect width="900" height="1200" fill="url(#depth)"/>
<rect width="900" height="1200" fill="url(#vig)"/>
</svg>