<svg xmlns="http://www.w3.org/2000/svg" viewBox="0 0 900 1200" width="900" height="1200" role="img" aria-label="Pearl White weave at 4× magnification">
<defs>
<linearGradient id="yarn" x1="0" y1="0" x2="1" y2="0">
  <stop offset="0" stop-color="#b4b1b1"/><stop offset=".3" stop-color="#EFEDEA"/>
  <stop offset=".52" stop-color="#f2f0ed"/><stop offset="1" stop-color="#b4b1b1"/>
</linearGradient>
<linearGradient id="yarnH" x1="0" y1="0" x2="0" y2="1">
  <stop offset="0" stop-color="#b4b1b1"/><stop offset=".3" stop-color="#EFEDEA"/>
  <stop offset=".52" stop-color="#f2f0ed"/><stop offset="1" stop-color="#b4b1b1"/>
</linearGradient>
<pattern id="warp" width="34" height="34" patternUnits="userSpaceOnUse">
  <rect x="4.08" width="25.84" height="34" rx="10.2" fill="url(#yarn)"/>
</pattern>
<pattern id="weft" width="34" height="34" patternUnits="userSpaceOnUse">
  <rect y="4.08" width="34" height="25.84" rx="10.2" fill="url(#yarnH)"/>
</pattern>
<pattern id="check" width="68" height="68" patternUnits="userSpaceOnUse">
  <rect width="34" height="34" fill="#fff"/>
  <rect x="34" y="34" width="34" height="34" fill="#fff"/>
</pattern>
<mask id="over"><rect width="900" height="1200" fill="url(#check)"/></mask>
<radialGradient id="focus" cx=".46" cy=".44" r=".58">
  <stop offset=".26" stop-color="#000" stop-opacity="0"/>
  <stop offset="1" stop-color="#000" stop-opacity=".62"/>
</radialGradient>
</defs>
<rect width="900" height="1200" fill="#7d7b7c"/>
<rect width="900" height="1200" fill="url(#warp)"/>
<g mask="url(#over)"><rect width="900" height="1200" fill="url(#weft)"/></g>
<path d="M264.4 550.7q170.9 51.8 530.7 11.4" stroke="#f8f6f3" stroke-width="1.5" fill="none" opacity="0.4"/><path d="M74.7 519.4q312.8 -48 626.8 13.3" stroke="#f8f6f3" stroke-width="1.8" fill="none" opacity="0.3"/><path d="M102.5 412.3q253.1 2.7 755.4 0.8" stroke="#f8f6f3" stroke-width="1" fill="none" opacity="0.3"/><path d="M7.3 283.5q234.7 -39.4 441.2 -16.3" stroke="#f8f6f3" stroke-width="1.3" fill="none" opacity="0.3"/><path d="M279.8 782.9q190.8 -55.9 750.5 -16.8" stroke="#f8f6f3" stroke-width="1" fill="none" opacity="0.4"/><path d="M45.7 115.1q264.3 -11.4 471.2 15.3" stroke="#f8f6f3" stroke-width="2" fill="none" opacity="0.2"/><path d="M104.5 991.8q296.1 51 535.7 -7" stroke="#f8f6f3" stroke-width="1.1" fill="none" opacity="0.3"/>
<rect width="900" height="1200" fill="url(#focus)"/>
</svg>