<svg xmlns="http://www.w3.org/2000/svg" viewBox="0 0 900 1200" width="900" height="1200" role="img" aria-label="Seafoam hijab styled">
<defs>
<linearGradient id="cloth" x1=".1" y1="0" x2=".9" y2="1">
  <stop offset="0" stop-color="#c3d8cf"/><stop offset=".42" stop-color="#B4CFC4"/><stop offset="1" stop-color="#6d7b77"/>
</linearGradient>
<radialGradient id="halo" cx=".5" cy=".34" r=".62">
  <stop offset="0" stop-color="#fff" stop-opacity="0.14"/>
  <stop offset="1" stop-color="#fff" stop-opacity="0"/>
</radialGradient>
<pattern id="wv" width="7" height="7" patternUnits="userSpaceOnUse">
  <rect width="7" height="7" fill="none"/>
  <path d="M0 0V7" stroke="#000" stroke-width="1.1" opacity=".5"/>
  <path d="M0 0H7" stroke="#000" stroke-width="1.1" opacity=".28"/>
</pattern>
<clipPath id="cut"><path d="M96 1240C110 986 246 872 300 792C246 686 236 512 300 392C348 236 566 232 614 392C678 512 668 686 614 792C668 872 804 986 818 1240Z"/></clipPath>
<linearGradient id="chin" x1="0" y1="0" x2="0" y2="1">
  <stop offset="0" stop-color="#4f5856" stop-opacity=".55"/>
  <stop offset="1" stop-color="#4f5856" stop-opacity="0"/>
</linearGradient>
</defs>
<rect width="900" height="1200" fill="#4b5453"/>
<rect width="900" height="1200" fill="url(#halo)"/>
<path d="M96 1240C110 986 246 872 300 792C246 686 236 512 300 392C348 236 566 232 614 392C678 512 668 686 614 792C668 872 804 986 818 1240Z" fill="url(#cloth)"/>
<g clip-path="url(#cut)">
  <path d="M298.9 700C255.8 880 262.4 1040 218.5 1240" stroke="#6d7b77" stroke-width="10.1" fill="none" opacity=".4" stroke-linecap="round"/><path d="M337.2 700C288.7 880 363.1 1040 307.9 1240" stroke="#c3d8cf" stroke-width="21.6" fill="none" opacity=".4" stroke-linecap="round"/><path d="M589.5 700C607.4 880 555 1040 678.6 1240" stroke="#6d7b77" stroke-width="8.2" fill="none" opacity=".4" stroke-linecap="round"/><path d="M636.7 700C648.9 880 637.9 1040 668.2 1240" stroke="#c3d8cf" stroke-width="16.1" fill="none" opacity=".4" stroke-linecap="round"/><path d="M217.5 700C263.3 880 278.2 1040 152.5 1240" stroke="#6d7b77" stroke-width="13.7" fill="none" opacity=".4" stroke-linecap="round"/>
  <path d="M450 316C536 316 574 392 570 480C566 574 522 646 450 646C378 646 334 574 330 480C326 392 364 316 450 316Z" fill="#4b5453"/>
  <path d="M330 500C330 500 388 566 450 566C512 566 570 500 570 500" fill="none" stroke="#606c69" stroke-width="26" opacity=".3"/>
  <rect x="240" y="620" width="420" height="200" fill="url(#chin)"/>
  <rect width="900" height="1200" fill="url(#wv)" opacity=".12"/>
</g>
<path d="M450 316C536 316 574 392 570 480C566 574 522 646 450 646C378 646 334 574 330 480C326 392 364 316 450 316Z" fill="none" stroke="#7b8b86" stroke-width="2.5" opacity=".5"/>
</svg>