<svg xmlns="http://www.w3.org/2000/svg" viewBox="0 0 900 1200" width="900" height="1200" role="img" aria-label="Cherry weave at 4× magnification">
<defs>
<linearGradient id="yarn" x1="0" y1="0" x2="1" y2="0">
  <stop offset="0" stop-color="#6c1b28"/><stop offset=".3" stop-color="#8E2231"/>
  <stop offset=".52" stop-color="#a14753"/><stop offset="1" stop-color="#6c1b28"/>
</linearGradient>
<linearGradient id="yarnH" x1="0" y1="0" x2="0" y2="1">
  <stop offset="0" stop-color="#6c1b28"/><stop offset=".3" stop-color="#8E2231"/>
  <stop offset=".52" stop-color="#a14753"/><stop offset="1" stop-color="#6c1b28"/>
</linearGradient>
<pattern id="warp" width="34" height="34" patternUnits="userSpaceOnUse">
  <rect x="4.08" width="25.84" height="34" rx="10.2" fill="url(#yarn)"/>
</pattern>
<pattern id="weft" width="34" height="34" patternUnits="userSpaceOnUse">
  <rect y="4.08" width="34" height="25.84" rx="10.2" fill="url(#yarnH)"/>
</pattern>
<pattern id="check" width="68" height="68" patternUnits="userSpaceOnUse">
  <rect width="34" height="34" fill="#fff"/>
  <rect x="34" y="34" width="34" height="34" fill="#fff"/>
</pattern>
<mask id="over"><rect width="900" height="1200" fill="url(#check)"/></mask>
<radialGradient id="focus" cx=".46" cy=".44" r=".58">
  <stop offset=".26" stop-color="#000" stop-opacity="0"/>
  <stop offset="1" stop-color="#000" stop-opacity=".62"/>
</radialGradient>
</defs>
<rect width="900" height="1200" fill="#4d151f"/>
<rect width="900" height="1200" fill="url(#warp)"/>
<g mask="url(#over)"><rect width="900" height="1200" fill="url(#weft)"/></g>
<path d="M159.6 988.6q304.2 34.5 726.5 -10.6" stroke="#cc9aa0" stroke-width="1.8" fill="none" opacity="0.3"/><path d="M87.1 795.8q218.6 -38.2 589.8 -8.6" stroke="#cc9aa0" stroke-width="1.6" fill="none" opacity="0.3"/><path d="M157.4 155.1q226.9 24.6 472.4 8.3" stroke="#cc9aa0" stroke-width="1" fill="none" opacity="0.3"/><path d="M-39.2 1018.4q257.2 24.2 628 -5.7" stroke="#cc9aa0" stroke-width="1.1" fill="none" opacity="0.4"/><path d="M258.3 1049.1q247.6 -1.9 650.5 -27.4" stroke="#cc9aa0" stroke-width="1.9" fill="none" opacity="0.2"/><path d="M232.3 261.5q271.5 -10 682.7 -8.9" stroke="#cc9aa0" stroke-width="1" fill="none" opacity="0.2"/><path d="M256.5 773.5q268.9 -7.8 533.3 -26.6" stroke="#cc9aa0" stroke-width="1.2" fill="none" opacity="0.3"/>
<rect width="900" height="1200" fill="url(#focus)"/>
</svg>