<svg xmlns="http://www.w3.org/2000/svg" viewBox="0 0 900 1200" width="900" height="1200" role="img" aria-label="Jet folded, with dye-card tag">
<defs>
<linearGradient id="b0" x1="0" y1="0" x2="0" y2="1">
      <stop offset="0" stop-color="#4f4e4f"/>
      <stop offset=".34" stop-color="#111013"/>
      <stop offset="1" stop-color="#0f0e11"/>
    </linearGradient><linearGradient id="b1" x1="0" y1="0" x2="0" y2="1">
      <stop offset="0" stop-color="#4f4e4f"/>
      <stop offset=".34" stop-color="#111013"/>
      <stop offset="1" stop-color="#0f0e11"/>
    </linearGradient><linearGradient id="b2" x1="0" y1="0" x2="0" y2="1">
      <stop offset="0" stop-color="#4f4e4f"/>
      <stop offset=".34" stop-color="#111013"/>
      <stop offset="1" stop-color="#0f0e11"/>
    </linearGradient>
<pattern id="wv" width="7" height="7" patternUnits="userSpaceOnUse">
  <rect width="7" height="7" fill="none"/>
  <path d="M0 0V7" stroke="#000" stroke-width="1.1" opacity=".5"/>
  <path d="M0 0H7" stroke="#000" stroke-width="1.1" opacity=".28"/>
</pattern>
<radialGradient id="light" cx=".42" cy=".3" r=".8">
  <stop offset="0" stop-color="#fff" stop-opacity=".5"/>
  <stop offset="1" stop-color="#fff" stop-opacity="0"/>
</radialGradient>
<clipPath id="stack"><rect x="80" y="360" width="740" height="520"/></clipPath>
</defs>
<rect width="900" height="1200" fill="#cbc8c5"/>
<rect width="900" height="1200" fill="url(#light)"/>
<g><g transform="rotate(-2.6 450 424)">
      <ellipse cx="450" cy="482" rx="270" ry="11" fill="#000" opacity=".16"/>
      <path d="M206.3 372H742.3V476H206.3A52 52 0 0 1 206.3 372Z" fill="url(#b0)"/>
      <path d="M214.3 398H742.3" stroke="#0e0d10" stroke-width="1.4" opacity=".4"/>
      <path d="M226.3 424H742.3" stroke="#0e0d10" stroke-width="1.4" opacity=".26"/>
      <path d="M206.3 375H742.3" stroke="#706f6f" stroke-width="2.4" opacity=".5"/>
      <path d="M741.3 372V476" stroke="#0e0c10" stroke-width="2" opacity=".5"/>
    </g><g transform="rotate(1.8 450 568) translate(900 0) scale(-1 1)">
      <ellipse cx="450" cy="626" rx="262" ry="11" fill="#000" opacity=".16"/>
      <path d="M221.6 516H741.6V620H221.6A52 52 0 0 1 221.6 516Z" fill="url(#b1)"/>
      <path d="M229.6 542H741.6" stroke="#0e0d10" stroke-width="1.4" opacity=".4"/>
      <path d="M241.6 568H741.6" stroke="#0e0d10" stroke-width="1.4" opacity=".26"/>
      <path d="M221.6 519H741.6" stroke="#706f6f" stroke-width="2.4" opacity=".5"/>
      <path d="M740.6 516V620" stroke="#0e0c10" stroke-width="2" opacity=".5"/>
    </g><g transform="rotate(-1.1 450 712)">
      <ellipse cx="450" cy="770" rx="254" ry="11" fill="#000" opacity=".16"/>
      <path d="M219.1 660H723.1V764H219.1A52 52 0 0 1 219.1 660Z" fill="url(#b2)"/>
      <path d="M227.1 686H723.1" stroke="#0e0d10" stroke-width="1.4" opacity=".4"/>
      <path d="M239.1 712H723.1" stroke="#0e0d10" stroke-width="1.4" opacity=".26"/>
      <path d="M219.1 663H723.1" stroke="#706f6f" stroke-width="2.4" opacity=".5"/>
      <path d="M722.1 660V764" stroke="#0e0c10" stroke-width="2" opacity=".5"/>
    </g></g>
<g clip-path="url(#stack)"><rect width="900" height="1200" fill="url(#wv)" opacity=".09"/></g>
<g opacity=".92">
  <rect x="330" y="960" width="240" height="112" rx="6" fill="#e862NaN"/>
  <circle cx="450" cy="984" r="7" fill="none" stroke="#3B3A3E" stroke-opacity=".35" stroke-width="2"/>
  <rect x="352" y="1008" width="34" height="34" rx="4" fill="#111013"/>
  <text x="398" y="1024" font-family="'IBM Plex Mono',monospace" font-size="17" letter-spacing="2" fill="#3B3A3E">HA-54</text>
  <text x="398" y="1044" font-family="'IBM Plex Mono',monospace" font-size="12" letter-spacing="1" fill="#3B3A3E" opacity=".62">JET</text>
</g>
</svg>